<mxfile host="app.diagrams.net" modified="2023-08-29T12:33:05.432Z" agent="Mozilla/5.0 (Windows NT 10.0; Win64; x64) AppleWebKit/537.36 (KHTML, like Gecko) Chrome/116.0.0.0 Safari/537.36" etag="BGzqcc42c_hukn5bFIbD" version="21.6.9" type="device">
  <diagram name="PÃ¡gina-1" id="-HmXAsXGmKIlnIN5e8yw">
    <mxGraphModel dx="2261" dy="758" grid="1" gridSize="10" guides="1" tooltips="1" connect="1" arrows="1" fold="1" page="1" pageScale="1" pageWidth="827" pageHeight="1169" math="0" shadow="0">
      <root>
        <mxCell id="0" />
        <mxCell id="1" parent="0" />
        <mxCell id="tlDiDbxV-l4tJtB9pIG_-1" value="" style="shape=cube;whiteSpace=wrap;html=1;boundedLbl=1;backgroundOutline=1;darkOpacity=0.05;darkOpacity2=0.1;" vertex="1" parent="1">
          <mxGeometry x="-110" y="220" width="180" height="100" as="geometry" />
        </mxCell>
        <mxCell id="tlDiDbxV-l4tJtB9pIG_-2" value="&amp;nbsp; &amp;nbsp;&amp;lt;&amp;lt;load balancer&amp;gt;&amp;gt;" style="text;html=1;strokeColor=none;fillColor=none;align=left;verticalAlign=middle;whiteSpace=wrap;rounded=0;" vertex="1" parent="1">
          <mxGeometry x="-90" y="250" width="150" height="30" as="geometry" />
        </mxCell>
        <mxCell id="tlDiDbxV-l4tJtB9pIG_-3" value="" style="shape=cube;whiteSpace=wrap;html=1;boundedLbl=1;backgroundOutline=1;darkOpacity=0.05;darkOpacity2=0.1;" vertex="1" parent="1">
          <mxGeometry x="320" y="40" width="220" height="130" as="geometry" />
        </mxCell>
        <mxCell id="tlDiDbxV-l4tJtB9pIG_-4" value="&amp;nbsp; &amp;nbsp;&amp;lt;&amp;lt;application server&amp;gt;&amp;gt;" style="text;html=1;strokeColor=none;fillColor=none;align=left;verticalAlign=middle;whiteSpace=wrap;rounded=0;" vertex="1" parent="1">
          <mxGeometry x="341" y="60" width="150" height="30" as="geometry" />
        </mxCell>
        <mxCell id="tlDiDbxV-l4tJtB9pIG_-5" value="&lt;br&gt;&lt;b&gt;Application&lt;/b&gt;" style="shape=module;align=left;spacingLeft=20;align=center;verticalAlign=top;whiteSpace=wrap;html=1;" vertex="1" parent="1">
          <mxGeometry x="360" y="90" width="130" height="50" as="geometry" />
        </mxCell>
        <mxCell id="tlDiDbxV-l4tJtB9pIG_-6" value="" style="shape=cube;whiteSpace=wrap;html=1;boundedLbl=1;backgroundOutline=1;darkOpacity=0.05;darkOpacity2=0.1;" vertex="1" parent="1">
          <mxGeometry x="320" y="240" width="220" height="140" as="geometry" />
        </mxCell>
        <mxCell id="tlDiDbxV-l4tJtB9pIG_-7" value="&amp;nbsp; &amp;nbsp;&amp;lt;&amp;lt;cache cluster&amp;gt;&amp;gt;" style="text;html=1;strokeColor=none;fillColor=none;align=left;verticalAlign=middle;whiteSpace=wrap;rounded=0;" vertex="1" parent="1">
          <mxGeometry x="341" y="260" width="150" height="30" as="geometry" />
        </mxCell>
        <mxCell id="tlDiDbxV-l4tJtB9pIG_-11" value="" style="verticalLabelPosition=bottom;verticalAlign=top;html=1;shape=mxgraph.basic.rect;fillColor2=none;strokeWidth=1;size=20;indent=5;" vertex="1" parent="1">
          <mxGeometry x="370" y="290" width="30" height="20" as="geometry" />
        </mxCell>
        <mxCell id="tlDiDbxV-l4tJtB9pIG_-12" value="" style="verticalLabelPosition=bottom;verticalAlign=top;html=1;shape=mxgraph.basic.rect;fillColor2=none;strokeWidth=1;size=20;indent=5;" vertex="1" parent="1">
          <mxGeometry x="370" y="320" width="30" as="geometry" />
        </mxCell>
        <mxCell id="tlDiDbxV-l4tJtB9pIG_-13" value="" style="verticalLabelPosition=bottom;verticalAlign=top;html=1;shape=mxgraph.basic.rect;fillColor2=none;strokeWidth=1;size=20;indent=5;" vertex="1" parent="1">
          <mxGeometry x="400" y="290" width="110" height="40" as="geometry" />
        </mxCell>
        <mxCell id="tlDiDbxV-l4tJtB9pIG_-14" value="" style="verticalLabelPosition=bottom;verticalAlign=top;html=1;shape=mxgraph.basic.rect;fillColor2=none;strokeWidth=1;size=20;indent=5;" vertex="1" parent="1">
          <mxGeometry x="370" y="310" width="30" height="20" as="geometry" />
        </mxCell>
        <mxCell id="tlDiDbxV-l4tJtB9pIG_-15" value="" style="verticalLabelPosition=bottom;verticalAlign=top;html=1;shape=mxgraph.basic.rect;fillColor2=none;strokeWidth=1;size=20;indent=5;" vertex="1" parent="1">
          <mxGeometry x="370" y="330" width="30" height="20" as="geometry" />
        </mxCell>
        <mxCell id="tlDiDbxV-l4tJtB9pIG_-16" value="" style="verticalLabelPosition=bottom;verticalAlign=top;html=1;shape=mxgraph.basic.rect;fillColor2=none;strokeWidth=1;size=20;indent=5;" vertex="1" parent="1">
          <mxGeometry x="370" y="360" width="30" as="geometry" />
        </mxCell>
        <mxCell id="tlDiDbxV-l4tJtB9pIG_-17" value="" style="verticalLabelPosition=bottom;verticalAlign=top;html=1;shape=mxgraph.basic.rect;fillColor2=none;strokeWidth=1;size=20;indent=5;" vertex="1" parent="1">
          <mxGeometry x="400" y="330" width="110" height="40" as="geometry" />
        </mxCell>
        <mxCell id="tlDiDbxV-l4tJtB9pIG_-18" value="" style="verticalLabelPosition=bottom;verticalAlign=top;html=1;shape=mxgraph.basic.rect;fillColor2=none;strokeWidth=1;size=20;indent=5;" vertex="1" parent="1">
          <mxGeometry x="370" y="350" width="30" height="20" as="geometry" />
        </mxCell>
        <mxCell id="tlDiDbxV-l4tJtB9pIG_-19" value="Cache 1" style="text;html=1;strokeColor=none;fillColor=none;align=center;verticalAlign=middle;whiteSpace=wrap;rounded=0;" vertex="1" parent="1">
          <mxGeometry x="414" y="300" width="60" height="30" as="geometry" />
        </mxCell>
        <mxCell id="tlDiDbxV-l4tJtB9pIG_-20" value="Cache 2" style="text;html=1;strokeColor=none;fillColor=none;align=center;verticalAlign=middle;whiteSpace=wrap;rounded=0;" vertex="1" parent="1">
          <mxGeometry x="412" y="335" width="60" height="30" as="geometry" />
        </mxCell>
        <mxCell id="tlDiDbxV-l4tJtB9pIG_-23" value="" style="shape=cube;whiteSpace=wrap;html=1;boundedLbl=1;backgroundOutline=1;darkOpacity=0.05;darkOpacity2=0.1;" vertex="1" parent="1">
          <mxGeometry x="320" y="455" width="220" height="130" as="geometry" />
        </mxCell>
        <mxCell id="tlDiDbxV-l4tJtB9pIG_-49" style="edgeStyle=orthogonalEdgeStyle;rounded=0;orthogonalLoop=1;jettySize=auto;html=1;endArrow=block;endFill=1;" edge="1" parent="1">
          <mxGeometry relative="1" as="geometry">
            <mxPoint x="441" y="381" as="targetPoint" />
            <mxPoint x="441" y="456" as="sourcePoint" />
          </mxGeometry>
        </mxCell>
        <mxCell id="tlDiDbxV-l4tJtB9pIG_-50" value="&lt;font style=&quot;font-size: 12px;&quot;&gt;Cache&lt;/font&gt;" style="edgeLabel;html=1;align=center;verticalAlign=middle;resizable=0;points=[];" vertex="1" connectable="0" parent="tlDiDbxV-l4tJtB9pIG_-49">
          <mxGeometry x="-0.1733" relative="1" as="geometry">
            <mxPoint as="offset" />
          </mxGeometry>
        </mxCell>
        <mxCell id="tlDiDbxV-l4tJtB9pIG_-24" value="&amp;nbsp; &amp;nbsp;&amp;lt;&amp;lt;application server&amp;gt;&amp;gt;" style="text;html=1;strokeColor=none;fillColor=none;align=left;verticalAlign=middle;whiteSpace=wrap;rounded=0;" vertex="1" parent="1">
          <mxGeometry x="341" y="475" width="150" height="30" as="geometry" />
        </mxCell>
        <mxCell id="tlDiDbxV-l4tJtB9pIG_-25" value="&lt;br&gt;&lt;b&gt;Application&lt;/b&gt;" style="shape=module;align=left;spacingLeft=20;align=center;verticalAlign=top;whiteSpace=wrap;html=1;" vertex="1" parent="1">
          <mxGeometry x="360" y="505" width="130" height="50" as="geometry" />
        </mxCell>
        <mxCell id="tlDiDbxV-l4tJtB9pIG_-26" value="" style="shape=cube;whiteSpace=wrap;html=1;boundedLbl=1;backgroundOutline=1;darkOpacity=0.05;darkOpacity2=0.1;" vertex="1" parent="1">
          <mxGeometry x="760" y="100" width="220" height="400" as="geometry" />
        </mxCell>
        <mxCell id="tlDiDbxV-l4tJtB9pIG_-27" value="" style="shape=cylinder3;whiteSpace=wrap;html=1;boundedLbl=1;backgroundOutline=1;size=15;" vertex="1" parent="1">
          <mxGeometry x="827" y="150" width="110" height="60" as="geometry" />
        </mxCell>
        <mxCell id="tlDiDbxV-l4tJtB9pIG_-28" value="" style="shape=cylinder3;whiteSpace=wrap;html=1;boundedLbl=1;backgroundOutline=1;size=15;" vertex="1" parent="1">
          <mxGeometry x="827" y="395" width="110" height="60" as="geometry" />
        </mxCell>
        <mxCell id="tlDiDbxV-l4tJtB9pIG_-29" value="" style="shape=cylinder3;whiteSpace=wrap;html=1;boundedLbl=1;backgroundOutline=1;size=15;" vertex="1" parent="1">
          <mxGeometry x="827" y="270" width="110" height="60" as="geometry" />
        </mxCell>
        <mxCell id="tlDiDbxV-l4tJtB9pIG_-30" value="SQL DB Primary" style="text;html=1;strokeColor=none;fillColor=none;align=center;verticalAlign=middle;whiteSpace=wrap;rounded=0;" vertex="1" parent="1">
          <mxGeometry x="830" y="180" width="110" height="30" as="geometry" />
        </mxCell>
        <mxCell id="tlDiDbxV-l4tJtB9pIG_-31" value="SQL DB Primary" style="text;html=1;strokeColor=none;fillColor=none;align=center;verticalAlign=middle;whiteSpace=wrap;rounded=0;" vertex="1" parent="1">
          <mxGeometry x="827" y="300" width="110" height="30" as="geometry" />
        </mxCell>
        <mxCell id="tlDiDbxV-l4tJtB9pIG_-32" value="SQL DB Primary" style="text;html=1;strokeColor=none;fillColor=none;align=center;verticalAlign=middle;whiteSpace=wrap;rounded=0;" vertex="1" parent="1">
          <mxGeometry x="830" y="425" width="110" height="30" as="geometry" />
        </mxCell>
        <mxCell id="tlDiDbxV-l4tJtB9pIG_-33" value="" style="endArrow=block;html=1;rounded=0;endFill=1;" edge="1" parent="1">
          <mxGeometry width="50" height="50" relative="1" as="geometry">
            <mxPoint x="170" y="280" as="sourcePoint" />
            <mxPoint x="70" y="280" as="targetPoint" />
          </mxGeometry>
        </mxCell>
        <mxCell id="tlDiDbxV-l4tJtB9pIG_-35" value="" style="endArrow=none;html=1;rounded=0;" edge="1" parent="1">
          <mxGeometry width="50" height="50" relative="1" as="geometry">
            <mxPoint x="170" y="280" as="sourcePoint" />
            <mxPoint x="170" y="100" as="targetPoint" />
          </mxGeometry>
        </mxCell>
        <mxCell id="tlDiDbxV-l4tJtB9pIG_-39" value="&lt;font style=&quot;font-size: 12px;&quot;&gt;50% traffic&lt;/font&gt;" style="edgeLabel;html=1;align=center;verticalAlign=middle;resizable=0;points=[];" vertex="1" connectable="0" parent="tlDiDbxV-l4tJtB9pIG_-35">
          <mxGeometry x="0.2111" y="-1" relative="1" as="geometry">
            <mxPoint as="offset" />
          </mxGeometry>
        </mxCell>
        <mxCell id="tlDiDbxV-l4tJtB9pIG_-36" value="" style="endArrow=classic;html=1;rounded=0;" edge="1" parent="1">
          <mxGeometry width="50" height="50" relative="1" as="geometry">
            <mxPoint x="170" y="100" as="sourcePoint" />
            <mxPoint x="320" y="100" as="targetPoint" />
          </mxGeometry>
        </mxCell>
        <mxCell id="tlDiDbxV-l4tJtB9pIG_-37" value="" style="endArrow=none;html=1;rounded=0;" edge="1" parent="1">
          <mxGeometry width="50" height="50" relative="1" as="geometry">
            <mxPoint x="170" y="520" as="sourcePoint" />
            <mxPoint x="170" y="280" as="targetPoint" />
          </mxGeometry>
        </mxCell>
        <mxCell id="tlDiDbxV-l4tJtB9pIG_-40" value="&lt;font style=&quot;font-size: 12px;&quot;&gt;50% of traffic&lt;/font&gt;" style="edgeLabel;html=1;align=center;verticalAlign=middle;resizable=0;points=[];" vertex="1" connectable="0" parent="tlDiDbxV-l4tJtB9pIG_-37">
          <mxGeometry x="-0.0417" y="-2" relative="1" as="geometry">
            <mxPoint as="offset" />
          </mxGeometry>
        </mxCell>
        <mxCell id="tlDiDbxV-l4tJtB9pIG_-38" value="" style="endArrow=classic;html=1;rounded=0;" edge="1" parent="1">
          <mxGeometry width="50" height="50" relative="1" as="geometry">
            <mxPoint x="170" y="519.5" as="sourcePoint" />
            <mxPoint x="320" y="519.5" as="targetPoint" />
          </mxGeometry>
        </mxCell>
        <mxCell id="tlDiDbxV-l4tJtB9pIG_-41" value="" style="endArrow=none;html=1;rounded=0;" edge="1" parent="1">
          <mxGeometry width="50" height="50" relative="1" as="geometry">
            <mxPoint x="540" y="104.5" as="sourcePoint" />
            <mxPoint x="640" y="104.5" as="targetPoint" />
          </mxGeometry>
        </mxCell>
        <mxCell id="tlDiDbxV-l4tJtB9pIG_-42" value="" style="endArrow=none;html=1;rounded=0;" edge="1" parent="1">
          <mxGeometry width="50" height="50" relative="1" as="geometry">
            <mxPoint x="640" y="104.5" as="sourcePoint" />
            <mxPoint x="640" y="560" as="targetPoint" />
          </mxGeometry>
        </mxCell>
        <mxCell id="tlDiDbxV-l4tJtB9pIG_-45" value="&lt;font style=&quot;font-size: 12px;&quot;&gt;Not cached data&lt;/font&gt;" style="edgeLabel;html=1;align=center;verticalAlign=middle;resizable=0;points=[];" vertex="1" connectable="0" parent="tlDiDbxV-l4tJtB9pIG_-42">
          <mxGeometry x="-0.6158" y="4" relative="1" as="geometry">
            <mxPoint as="offset" />
          </mxGeometry>
        </mxCell>
        <mxCell id="tlDiDbxV-l4tJtB9pIG_-46" value="&lt;font style=&quot;font-size: 12px;&quot;&gt;Not cached data&lt;/font&gt;" style="edgeLabel;html=1;align=center;verticalAlign=middle;resizable=0;points=[];" vertex="1" connectable="0" parent="tlDiDbxV-l4tJtB9pIG_-42">
          <mxGeometry x="0.4512" y="-1" relative="1" as="geometry">
            <mxPoint as="offset" />
          </mxGeometry>
        </mxCell>
        <mxCell id="tlDiDbxV-l4tJtB9pIG_-43" value="" style="endArrow=none;html=1;rounded=0;" edge="1" parent="1">
          <mxGeometry width="50" height="50" relative="1" as="geometry">
            <mxPoint x="540" y="559" as="sourcePoint" />
            <mxPoint x="640" y="559" as="targetPoint" />
          </mxGeometry>
        </mxCell>
        <mxCell id="tlDiDbxV-l4tJtB9pIG_-44" value="" style="endArrow=block;html=1;rounded=0;entryX=0.005;entryY=0.56;entryDx=0;entryDy=0;entryPerimeter=0;endFill=1;" edge="1" parent="1" target="tlDiDbxV-l4tJtB9pIG_-26">
          <mxGeometry width="50" height="50" relative="1" as="geometry">
            <mxPoint x="640" y="325" as="sourcePoint" />
            <mxPoint x="690" y="275" as="targetPoint" />
          </mxGeometry>
        </mxCell>
        <mxCell id="tlDiDbxV-l4tJtB9pIG_-53" value="" style="endArrow=classic;html=1;rounded=0;entryX=0.55;entryY=-0.021;entryDx=0;entryDy=0;entryPerimeter=0;" edge="1" parent="1" target="tlDiDbxV-l4tJtB9pIG_-6">
          <mxGeometry width="50" height="50" relative="1" as="geometry">
            <mxPoint x="441.5" y="170" as="sourcePoint" />
            <mxPoint x="441.5" y="230" as="targetPoint" />
          </mxGeometry>
        </mxCell>
        <mxCell id="tlDiDbxV-l4tJtB9pIG_-54" value="&lt;font style=&quot;font-size: 12px;&quot;&gt;Cache&lt;/font&gt;" style="edgeLabel;html=1;align=center;verticalAlign=middle;resizable=0;points=[];" vertex="1" connectable="0" parent="tlDiDbxV-l4tJtB9pIG_-53">
          <mxGeometry x="-0.1059" y="3" relative="1" as="geometry">
            <mxPoint as="offset" />
          </mxGeometry>
        </mxCell>
      </root>
    </mxGraphModel>
  </diagram>
</mxfile>
